<?xml version="1.0" standalone="no"?>
<!DOCTYPE svg PUBLIC "-//W3C//DTD SVG 20010904//EN"
 "http://www.w3.org/TR/2001/REC-SVG-20010904/DTD/svg10.dtd">
<svg version="1.0" xmlns="http://www.w3.org/2000/svg"
 width="500.000000pt" height="500.000000pt" viewBox="0 0 500.000000 500.000000"
 preserveAspectRatio="xMidYMid meet">

<g transform="translate(0.000000,500.000000) scale(0.100000,-0.100000)"
fill="#000000" stroke="none">
<path d="M1560 2520 l0 -1200 379 0 c209 0 382 4 385 9 11 17 -14 278 -34 354
-28 112 -89 220 -192 344 -159 190 -220 284 -283 436 -71 174 -136 489 -150
732 -5 82 -4 96 6 80 7 -11 152 -265 322 -565 353 -623 373 -656 444 -726 120
-121 207 -163 573 -274 58 -18 127 -43 153 -57 110 -55 172 -144 185 -267 l7
-61 43 -3 42 -3 0 1200 0 1201 -385 0 -385 0 5 -97 c18 -305 59 -415 240 -633
200 -241 292 -427 355 -715 21 -98 60 -351 60 -390 0 -11 -49 75 -108 190 -60
116 -165 311 -234 435 -315 565 -399 713 -440 777 -132 203 -307 340 -500 392
-93 26 -237 41 -378 41 l-110 0 0 -1200z"/>
</g>
</svg>
